<svg width="82" height="93" viewBox="0 0 82 93" fill="none" xmlns="http://www.w3.org/2000/svg">
<path fill-rule="evenodd" clip-rule="evenodd" d="M40.553 90.0128V45.9642L78.6702 23.9399V67.9885L40.553 90.0128Z" stroke="white" stroke-miterlimit="10"/>
<path fill-rule="evenodd" clip-rule="evenodd" d="M2.44458 67.9885V23.9399L40.5527 45.9642V90.0128L2.44458 67.9885Z" stroke="white" stroke-miterlimit="10"/>
<path fill-rule="evenodd" clip-rule="evenodd" d="M40.5527 1.91556L2.44458 23.9399L40.5527 45.9642L78.6699 23.9399L40.5527 1.91556Z" stroke="white" stroke-miterlimit="10"/>
<path fill-rule="evenodd" clip-rule="evenodd" d="M60.1016 34.6633L40.5531 23.3716L21.0046 34.6633L40.5531 45.9642L60.1016 34.6633Z" stroke="white" stroke-miterlimit="10"/>
<path fill-rule="evenodd" clip-rule="evenodd" d="M60.1014 34.6633V57.2651L40.553 68.5568V45.9642L60.1014 34.6633Z" stroke="white" stroke-miterlimit="10"/>
<path fill-rule="evenodd" clip-rule="evenodd" d="M21.0046 34.6633V57.2651L40.5531 68.5568V45.9642L21.0046 34.6633Z" stroke="white" stroke-miterlimit="10"/>
<path d="M40.6898 4.89429C42.04 4.89429 43.1345 3.79867 43.1345 2.44715C43.1345 1.09562 42.04 0 40.6898 0C39.3396 0 38.2451 1.09562 38.2451 2.44715C38.2451 3.79867 39.3396 4.89429 40.6898 4.89429Z" fill="white"/>
<path d="M40.6898 26.387C42.04 26.387 43.1345 25.2914 43.1345 23.9399C43.1345 22.5884 42.04 21.4927 40.6898 21.4927C39.3396 21.4927 38.2451 22.5884 38.2451 23.9399C38.2451 25.2914 39.3396 26.387 40.6898 26.387Z" fill="white"/>
<path d="M40.6898 47.8797C42.04 47.8797 43.1345 46.7841 43.1345 45.4326C43.1345 44.0811 42.04 42.9854 40.6898 42.9854C39.3396 42.9854 38.2451 44.0811 38.2451 45.4326C38.2451 46.7841 39.3396 47.8797 40.6898 47.8797Z" fill="white"/>
<path d="M60.1014 37.1104C61.4516 37.1104 62.5461 36.0148 62.5461 34.6633C62.5461 33.3118 61.4516 32.2162 60.1014 32.2162C58.7513 32.2162 57.6567 33.3118 57.6567 34.6633C57.6567 36.0148 58.7513 37.1104 60.1014 37.1104Z" fill="white"/>
<path d="M78.67 26.387C80.0202 26.387 81.1147 25.2914 81.1147 23.9399C81.1147 22.5884 80.0202 21.4927 78.67 21.4927C77.3199 21.4927 76.2253 22.5884 76.2253 23.9399C76.2253 25.2914 77.3199 26.387 78.67 26.387Z" fill="white"/>
<path d="M78.67 71.0039C80.0202 71.0039 81.1147 69.9083 81.1147 68.5567C81.1147 67.2052 80.0202 66.1096 78.67 66.1096C77.3199 66.1096 76.2253 67.2052 76.2253 68.5567C76.2253 69.9083 77.3199 71.0039 78.67 71.0039Z" fill="white"/>
<path d="M2.4447 70.0873C3.79488 70.0873 4.88941 68.9917 4.88941 67.6402C4.88941 66.2887 3.79488 65.1931 2.4447 65.1931C1.09453 65.1931 0 66.2887 0 67.6402C0 68.9917 1.09453 70.0873 2.4447 70.0873Z" fill="white"/>
<path d="M2.4447 26.387C3.79488 26.387 4.88941 25.2914 4.88941 23.9399C4.88941 22.5884 3.79488 21.4927 2.4447 21.4927C1.09453 21.4927 0 22.5884 0 23.9399C0 25.2914 1.09453 26.387 2.4447 26.387Z" fill="white"/>
<path d="M21.0045 37.1104C22.3547 37.1104 23.4492 36.0148 23.4492 34.6633C23.4492 33.3118 22.3547 32.2162 21.0045 32.2162C19.6543 32.2162 18.5598 33.3118 18.5598 34.6633C18.5598 36.0148 19.6543 37.1104 21.0045 37.1104Z" fill="white"/>
<path d="M21.0045 59.9963C22.3547 59.9963 23.4492 58.9007 23.4492 57.5492C23.4492 56.1976 22.3547 55.102 21.0045 55.102C19.6543 55.102 18.5598 56.1976 18.5598 57.5492C18.5598 58.9007 19.6543 59.9963 21.0045 59.9963Z" fill="white"/>
<path d="M60.1014 59.9963C61.4516 59.9963 62.5461 58.9007 62.5461 57.5492C62.5461 56.1976 61.4516 55.102 60.1014 55.102C58.7513 55.102 57.6567 56.1976 57.6567 57.5492C57.6567 58.9007 58.7513 59.9963 60.1014 59.9963Z" fill="white"/>
<path d="M40.6898 70.0873C42.04 70.0873 43.1345 68.9917 43.1345 67.6402C43.1345 66.2887 42.04 65.1931 40.6898 65.1931C39.3396 65.1931 38.2451 66.2887 38.2451 67.6402C38.2451 68.9917 39.3396 70.0873 40.6898 70.0873Z" fill="white"/>
<path d="M40.6898 92.4599C42.04 92.4599 43.1345 91.3643 43.1345 90.0128C43.1345 88.6613 42.04 87.5656 40.6898 87.5656C39.3396 87.5656 38.2451 88.6613 38.2451 90.0128C38.2451 91.3643 39.3396 92.4599 40.6898 92.4599Z" fill="white"/>
</svg>
